<mxfile host="Electron" modified="2024-08-01T17:58:29.942Z" agent="Mozilla/5.0 (Macintosh; Intel Mac OS X 10_15_7) AppleWebKit/537.36 (KHTML, like Gecko) draw.io/23.1.5 Chrome/120.0.6099.109 Electron/28.1.0 Safari/537.36" etag="33pnRvp5g_S3MZTmasxN" version="23.1.5" type="device">
  <diagram name="Page-1" id="d4iePwNRi1tynN5auYs1">
    <mxGraphModel dx="637" dy="380" grid="1" gridSize="10" guides="1" tooltips="1" connect="1" arrows="1" fold="1" page="1" pageScale="1" pageWidth="850" pageHeight="1100" math="1" shadow="0">
      <root>
        <mxCell id="0" />
        <mxCell id="1" parent="0" />
        <mxCell id="sl-jxv3QTCXbVpKm3Z13-20" style="rounded=0;orthogonalLoop=1;jettySize=auto;html=1;exitX=0.5;exitY=1;exitDx=0;exitDy=0;entryX=0.5;entryY=0;entryDx=0;entryDy=0;endArrow=none;endFill=0;" parent="1" source="sl-jxv3QTCXbVpKm3Z13-1" target="sl-jxv3QTCXbVpKm3Z13-15" edge="1">
          <mxGeometry relative="1" as="geometry" />
        </mxCell>
        <mxCell id="sl-jxv3QTCXbVpKm3Z13-22" style="rounded=0;orthogonalLoop=1;jettySize=auto;html=1;exitX=1;exitY=1;exitDx=0;exitDy=0;entryX=0;entryY=0;entryDx=0;entryDy=0;endArrow=none;endFill=0;" parent="1" source="sl-jxv3QTCXbVpKm3Z13-1" target="XT1H4EvsbteM43TpEFrL-10" edge="1">
          <mxGeometry relative="1" as="geometry">
            <mxPoint x="450" y="369.9999999999999" as="targetPoint" />
          </mxGeometry>
        </mxCell>
        <mxCell id="sl-jxv3QTCXbVpKm3Z13-1" value="\(0\)" style="ellipse;whiteSpace=wrap;html=1;aspect=fixed;fillColor=#f8cecc;strokeColor=#b85450;" parent="1" vertex="1">
          <mxGeometry x="420" y="340" width="20" height="20" as="geometry" />
        </mxCell>
        <mxCell id="sl-jxv3QTCXbVpKm3Z13-10" style="rounded=0;orthogonalLoop=1;jettySize=auto;html=1;exitX=0.5;exitY=1;exitDx=0;exitDy=0;entryX=0.5;entryY=0;entryDx=0;entryDy=0;endArrow=none;endFill=0;" parent="1" source="sl-jxv3QTCXbVpKm3Z13-2" target="XT1H4EvsbteM43TpEFrL-5" edge="1">
          <mxGeometry relative="1" as="geometry">
            <mxPoint x="380" y="389.9999999999999" as="targetPoint" />
          </mxGeometry>
        </mxCell>
        <mxCell id="sl-jxv3QTCXbVpKm3Z13-11" style="rounded=0;orthogonalLoop=1;jettySize=auto;html=1;exitX=1;exitY=1;exitDx=0;exitDy=0;entryX=0;entryY=0;entryDx=0;entryDy=0;endArrow=none;endFill=0;" parent="1" source="sl-jxv3QTCXbVpKm3Z13-2" target="XT1H4EvsbteM43TpEFrL-6" edge="1">
          <mxGeometry relative="1" as="geometry">
            <mxPoint x="400" y="389.9999999999999" as="targetPoint" />
          </mxGeometry>
        </mxCell>
        <mxCell id="sl-jxv3QTCXbVpKm3Z13-12" style="rounded=0;orthogonalLoop=1;jettySize=auto;html=1;exitX=1;exitY=0;exitDx=0;exitDy=0;entryX=0;entryY=0.5;entryDx=0;entryDy=0;endArrow=none;endFill=0;" parent="1" source="sl-jxv3QTCXbVpKm3Z13-2" target="sl-jxv3QTCXbVpKm3Z13-1" edge="1">
          <mxGeometry relative="1" as="geometry" />
        </mxCell>
        <mxCell id="sl-jxv3QTCXbVpKm3Z13-2" value="\(1\)" style="ellipse;whiteSpace=wrap;html=1;aspect=fixed;fillColor=#f8cecc;strokeColor=#b85450;" parent="1" vertex="1">
          <mxGeometry x="340" y="360" width="20" height="20" as="geometry" />
        </mxCell>
        <mxCell id="sl-jxv3QTCXbVpKm3Z13-9" style="rounded=0;orthogonalLoop=1;jettySize=auto;html=1;exitX=1;exitY=0;exitDx=0;exitDy=0;entryX=0;entryY=1;entryDx=0;entryDy=0;endArrow=none;endFill=0;" parent="1" source="XT1H4EvsbteM43TpEFrL-4" target="sl-jxv3QTCXbVpKm3Z13-2" edge="1">
          <mxGeometry relative="1" as="geometry">
            <mxPoint x="360" y="389.9999999999999" as="sourcePoint" />
          </mxGeometry>
        </mxCell>
        <mxCell id="sl-jxv3QTCXbVpKm3Z13-13" style="rounded=0;orthogonalLoop=1;jettySize=auto;html=1;exitX=0.5;exitY=1;exitDx=0;exitDy=0;entryX=0.5;entryY=0;entryDx=0;entryDy=0;endArrow=none;endFill=0;" parent="1" source="sl-jxv3QTCXbVpKm3Z13-15" target="XT1H4EvsbteM43TpEFrL-8" edge="1">
          <mxGeometry relative="1" as="geometry">
            <mxPoint x="430" y="409.9999999999999" as="targetPoint" />
          </mxGeometry>
        </mxCell>
        <mxCell id="sl-jxv3QTCXbVpKm3Z13-14" style="rounded=0;orthogonalLoop=1;jettySize=auto;html=1;exitX=1;exitY=1;exitDx=0;exitDy=0;entryX=0;entryY=0;entryDx=0;entryDy=0;endArrow=none;endFill=0;" parent="1" source="sl-jxv3QTCXbVpKm3Z13-15" target="XT1H4EvsbteM43TpEFrL-9" edge="1">
          <mxGeometry relative="1" as="geometry">
            <mxPoint x="450" y="409.9999999999999" as="targetPoint" />
          </mxGeometry>
        </mxCell>
        <mxCell id="sl-jxv3QTCXbVpKm3Z13-15" value="\(2\)" style="ellipse;whiteSpace=wrap;html=1;aspect=fixed;fillColor=#f8cecc;strokeColor=#b85450;" parent="1" vertex="1">
          <mxGeometry x="420" y="380" width="20" height="20" as="geometry" />
        </mxCell>
        <mxCell id="sl-jxv3QTCXbVpKm3Z13-16" style="rounded=0;orthogonalLoop=1;jettySize=auto;html=1;exitX=1;exitY=0;exitDx=0;exitDy=0;entryX=0;entryY=1;entryDx=0;entryDy=0;endArrow=none;endFill=0;" parent="1" source="XT1H4EvsbteM43TpEFrL-7" target="sl-jxv3QTCXbVpKm3Z13-15" edge="1">
          <mxGeometry relative="1" as="geometry">
            <mxPoint x="410" y="409.9999999999999" as="sourcePoint" />
          </mxGeometry>
        </mxCell>
        <mxCell id="sl-jxv3QTCXbVpKm3Z13-23" style="rounded=0;orthogonalLoop=1;jettySize=auto;html=1;exitX=0.5;exitY=1;exitDx=0;exitDy=0;entryX=0.5;entryY=0;entryDx=0;entryDy=0;endArrow=none;endFill=0;" parent="1" source="sl-jxv3QTCXbVpKm3Z13-25" target="sl-jxv3QTCXbVpKm3Z13-43" edge="1">
          <mxGeometry relative="1" as="geometry">
            <mxPoint x="540" y="360" as="targetPoint" />
          </mxGeometry>
        </mxCell>
        <mxCell id="XT1H4EvsbteM43TpEFrL-18" style="rounded=0;orthogonalLoop=1;jettySize=auto;html=1;exitX=1;exitY=1;exitDx=0;exitDy=0;entryX=0;entryY=0;entryDx=0;entryDy=0;endArrow=none;endFill=0;" edge="1" parent="1" source="sl-jxv3QTCXbVpKm3Z13-25" target="XT1H4EvsbteM43TpEFrL-17">
          <mxGeometry relative="1" as="geometry" />
        </mxCell>
        <mxCell id="sl-jxv3QTCXbVpKm3Z13-25" value="\(0\)" style="ellipse;whiteSpace=wrap;html=1;aspect=fixed;fillColor=#f8cecc;strokeColor=#b85450;" parent="1" vertex="1">
          <mxGeometry x="565" y="330" width="20" height="20" as="geometry" />
        </mxCell>
        <mxCell id="sl-jxv3QTCXbVpKm3Z13-42" style="rounded=0;orthogonalLoop=1;jettySize=auto;html=1;exitX=1;exitY=0;exitDx=0;exitDy=0;entryX=0;entryY=1;entryDx=0;entryDy=0;endArrow=none;endFill=0;" parent="1" source="XT1H4EvsbteM43TpEFrL-11" target="sl-jxv3QTCXbVpKm3Z13-25" edge="1">
          <mxGeometry relative="1" as="geometry">
            <mxPoint x="540" y="350" as="sourcePoint" />
          </mxGeometry>
        </mxCell>
        <mxCell id="sl-jxv3QTCXbVpKm3Z13-45" style="rounded=0;orthogonalLoop=1;jettySize=auto;html=1;exitX=0.06;exitY=0.729;exitDx=0;exitDy=0;entryX=0.964;entryY=0.262;entryDx=0;entryDy=0;endArrow=none;endFill=0;exitPerimeter=0;entryPerimeter=0;" parent="1" source="sl-jxv3QTCXbVpKm3Z13-43" target="sl-jxv3QTCXbVpKm3Z13-44" edge="1">
          <mxGeometry relative="1" as="geometry" />
        </mxCell>
        <mxCell id="sl-jxv3QTCXbVpKm3Z13-46" style="rounded=0;orthogonalLoop=1;jettySize=auto;html=1;exitX=0.5;exitY=1;exitDx=0;exitDy=0;entryX=0.5;entryY=0;entryDx=0;entryDy=0;endArrow=none;endFill=0;" parent="1" source="sl-jxv3QTCXbVpKm3Z13-43" target="XT1H4EvsbteM43TpEFrL-15" edge="1">
          <mxGeometry relative="1" as="geometry">
            <mxPoint x="560" y="380" as="targetPoint" />
          </mxGeometry>
        </mxCell>
        <mxCell id="sl-jxv3QTCXbVpKm3Z13-47" style="rounded=0;orthogonalLoop=1;jettySize=auto;html=1;exitX=1;exitY=1;exitDx=0;exitDy=0;entryX=0;entryY=0;entryDx=0;entryDy=0;endArrow=none;endFill=0;" parent="1" source="sl-jxv3QTCXbVpKm3Z13-43" target="XT1H4EvsbteM43TpEFrL-16" edge="1">
          <mxGeometry relative="1" as="geometry">
            <mxPoint x="580" y="380" as="targetPoint" />
          </mxGeometry>
        </mxCell>
        <mxCell id="sl-jxv3QTCXbVpKm3Z13-43" value="\(1\)" style="ellipse;whiteSpace=wrap;html=1;aspect=fixed;fillColor=#f8cecc;strokeColor=#b85450;" parent="1" vertex="1">
          <mxGeometry x="565" y="360" width="20" height="20" as="geometry" />
        </mxCell>
        <mxCell id="sl-jxv3QTCXbVpKm3Z13-48" style="rounded=0;orthogonalLoop=1;jettySize=auto;html=1;exitX=0;exitY=1;exitDx=0;exitDy=0;entryX=1;entryY=0;entryDx=0;entryDy=0;endArrow=none;endFill=0;" parent="1" source="sl-jxv3QTCXbVpKm3Z13-44" target="XT1H4EvsbteM43TpEFrL-12" edge="1">
          <mxGeometry relative="1" as="geometry">
            <mxPoint x="510" y="410" as="targetPoint" />
          </mxGeometry>
        </mxCell>
        <mxCell id="sl-jxv3QTCXbVpKm3Z13-49" style="rounded=0;orthogonalLoop=1;jettySize=auto;html=1;exitX=0.5;exitY=1;exitDx=0;exitDy=0;entryX=0.5;entryY=0;entryDx=0;entryDy=0;endArrow=none;endFill=0;" parent="1" source="sl-jxv3QTCXbVpKm3Z13-44" edge="1">
          <mxGeometry relative="1" as="geometry">
            <mxPoint x="530" y="410" as="targetPoint" />
          </mxGeometry>
        </mxCell>
        <mxCell id="sl-jxv3QTCXbVpKm3Z13-50" style="rounded=0;orthogonalLoop=1;jettySize=auto;html=1;exitX=1;exitY=1;exitDx=0;exitDy=0;entryX=0;entryY=0;entryDx=0;entryDy=0;endArrow=none;endFill=0;" parent="1" source="sl-jxv3QTCXbVpKm3Z13-44" target="XT1H4EvsbteM43TpEFrL-14" edge="1">
          <mxGeometry relative="1" as="geometry">
            <mxPoint x="550" y="410" as="targetPoint" />
          </mxGeometry>
        </mxCell>
        <mxCell id="sl-jxv3QTCXbVpKm3Z13-44" value="\(2\)" style="ellipse;whiteSpace=wrap;html=1;aspect=fixed;fillColor=#f8cecc;strokeColor=#b85450;" parent="1" vertex="1">
          <mxGeometry x="520" y="380" width="20" height="20" as="geometry" />
        </mxCell>
        <mxCell id="sl-jxv3QTCXbVpKm3Z13-52" value="" style="endArrow=none;dashed=1;html=1;rounded=0;" parent="1" edge="1">
          <mxGeometry width="50" height="50" relative="1" as="geometry">
            <mxPoint x="480" y="430" as="sourcePoint" />
            <mxPoint x="480" y="330" as="targetPoint" />
          </mxGeometry>
        </mxCell>
        <mxCell id="sl-jxv3QTCXbVpKm3Z13-54" value="(a)" style="text;html=1;align=center;verticalAlign=middle;whiteSpace=wrap;rounded=0;" parent="1" vertex="1">
          <mxGeometry x="320" y="420" width="60" height="10" as="geometry" />
        </mxCell>
        <mxCell id="sl-jxv3QTCXbVpKm3Z13-55" value="(b)" style="text;html=1;align=center;verticalAlign=middle;whiteSpace=wrap;rounded=0;" parent="1" vertex="1">
          <mxGeometry x="590" y="415" width="20" height="10" as="geometry" />
        </mxCell>
        <mxCell id="XT1H4EvsbteM43TpEFrL-4" value="\(S_0\)" style="ellipse;whiteSpace=wrap;html=1;aspect=fixed;fillColor=#dae8fc;strokeColor=#6c8ebf;" vertex="1" parent="1">
          <mxGeometry x="310" y="390" width="20" height="20" as="geometry" />
        </mxCell>
        <mxCell id="XT1H4EvsbteM43TpEFrL-5" value="\(S_1\)" style="ellipse;whiteSpace=wrap;html=1;aspect=fixed;fillColor=#dae8fc;strokeColor=#6c8ebf;" vertex="1" parent="1">
          <mxGeometry x="340" y="390" width="20" height="20" as="geometry" />
        </mxCell>
        <mxCell id="XT1H4EvsbteM43TpEFrL-6" value="\(S_2\)" style="ellipse;whiteSpace=wrap;html=1;aspect=fixed;fillColor=#dae8fc;strokeColor=#6c8ebf;" vertex="1" parent="1">
          <mxGeometry x="370" y="390" width="20" height="20" as="geometry" />
        </mxCell>
        <mxCell id="XT1H4EvsbteM43TpEFrL-7" value="\(S_3\)" style="ellipse;whiteSpace=wrap;html=1;aspect=fixed;fillColor=#dae8fc;strokeColor=#6c8ebf;" vertex="1" parent="1">
          <mxGeometry x="390" y="410" width="20" height="20" as="geometry" />
        </mxCell>
        <mxCell id="XT1H4EvsbteM43TpEFrL-8" value="\(S_4\)" style="ellipse;whiteSpace=wrap;html=1;aspect=fixed;fillColor=#dae8fc;strokeColor=#6c8ebf;" vertex="1" parent="1">
          <mxGeometry x="420" y="410" width="20" height="20" as="geometry" />
        </mxCell>
        <mxCell id="XT1H4EvsbteM43TpEFrL-9" value="\(S_5\)" style="ellipse;whiteSpace=wrap;html=1;aspect=fixed;fillColor=#dae8fc;strokeColor=#6c8ebf;" vertex="1" parent="1">
          <mxGeometry x="450" y="410" width="20" height="20" as="geometry" />
        </mxCell>
        <mxCell id="XT1H4EvsbteM43TpEFrL-10" value="\(S_6\)" style="ellipse;whiteSpace=wrap;html=1;aspect=fixed;fillColor=#dae8fc;strokeColor=#6c8ebf;" vertex="1" parent="1">
          <mxGeometry x="450" y="370" width="20" height="20" as="geometry" />
        </mxCell>
        <mxCell id="XT1H4EvsbteM43TpEFrL-11" value="\(S_0\)" style="ellipse;whiteSpace=wrap;html=1;aspect=fixed;fillColor=#dae8fc;strokeColor=#6c8ebf;" vertex="1" parent="1">
          <mxGeometry x="540" y="355" width="20" height="20" as="geometry" />
        </mxCell>
        <mxCell id="XT1H4EvsbteM43TpEFrL-12" value="\(S_1\)" style="ellipse;whiteSpace=wrap;html=1;aspect=fixed;fillColor=#dae8fc;strokeColor=#6c8ebf;" vertex="1" parent="1">
          <mxGeometry x="490" y="410" width="20" height="20" as="geometry" />
        </mxCell>
        <mxCell id="XT1H4EvsbteM43TpEFrL-13" value="\(S_2\)" style="ellipse;whiteSpace=wrap;html=1;aspect=fixed;fillColor=#dae8fc;strokeColor=#6c8ebf;" vertex="1" parent="1">
          <mxGeometry x="520" y="410" width="20" height="20" as="geometry" />
        </mxCell>
        <mxCell id="XT1H4EvsbteM43TpEFrL-14" value="\(S_3\)" style="ellipse;whiteSpace=wrap;html=1;aspect=fixed;fillColor=#dae8fc;strokeColor=#6c8ebf;" vertex="1" parent="1">
          <mxGeometry x="550" y="410" width="20" height="20" as="geometry" />
        </mxCell>
        <mxCell id="XT1H4EvsbteM43TpEFrL-15" value="\(S_4\)" style="ellipse;whiteSpace=wrap;html=1;aspect=fixed;fillColor=#dae8fc;strokeColor=#6c8ebf;" vertex="1" parent="1">
          <mxGeometry x="565" y="385" width="20" height="20" as="geometry" />
        </mxCell>
        <mxCell id="XT1H4EvsbteM43TpEFrL-16" value="\(S_5\)" style="ellipse;whiteSpace=wrap;html=1;aspect=fixed;fillColor=#dae8fc;strokeColor=#6c8ebf;" vertex="1" parent="1">
          <mxGeometry x="595" y="385" width="20" height="20" as="geometry" />
        </mxCell>
        <mxCell id="XT1H4EvsbteM43TpEFrL-17" value="\(S_6\)" style="ellipse;whiteSpace=wrap;html=1;aspect=fixed;fillColor=#dae8fc;strokeColor=#6c8ebf;" vertex="1" parent="1">
          <mxGeometry x="590" y="355" width="20" height="20" as="geometry" />
        </mxCell>
      </root>
    </mxGraphModel>
  </diagram>
</mxfile>
